{"glyphs":{":":{"x_min":0,"x_max":333,"ha":333,"o":"m 62 66 q 62 99 85 121 q 108 144 141 144 q 173 144 196 121 q 219 99 219 66 q 219 33 196 10 q 173 -14 141 -14 q 108 -14 85 9 q 62 32 62 66 z m 62 412 q 62 445 85 468 q 108 491 141 491 q 173 491 196 468 q 219 445 219 412 q 219 379 196 356 q 173 333 141 333 q 108 333 85 356 q 62 378 62 412 z"},"$":{"x_min":0,"x_max":667,"ha":667,"o":"m 69 76 l 126 251 l 140 249 q 156 152 198 102 q 241 52 308 52 q 359 52 393 81 q 426 111 426 156 q 426 192 403 213 q 380 233 296 255 q 180 286 143 321 q 106 355 106 421 q 106 492 163 541 q 220 589 316 600 l 316 687 l 363 687 l 363 600 q 419 596 467 584 q 515 572 555 552 l 509 408 l 496 409 q 476 484 435 526 q 395 567 341 567 q 300 567 271 540 q 242 513 242 475 q 242 411 356 385 q 378 380 391 377 q 499 351 539 315 q 578 278 578 212 q 578 134 523 85 q 468 35 363 19 l 363 -75 l 316 -75 l 316 19 l 309 19 q 239 19 179 33 q 119 47 69 76 z"},"?":{"x_min":0,"x_max":565,"ha":565,"o":"m 197 61 q 197 94 219 117 q 242 139 275 139 q 308 139 330 116 q 353 94 353 61 q 353 28 330 4 q 307 -19 275 -19 q 242 -19 219 4 q 197 27 197 61 z m 263 187 q 264 221 276 250 q 289 278 326 321 q 370 372 385 408 q 400 445 400 490 q 400 555 365 597 q 331 638 277 638 q 216 638 174 592 q 132 545 106 449 l 90 449 l 45 618 q 106 642 164 655 q 222 667 275 667 q 395 667 469 615 q 544 563 544 483 q 544 441 525 405 q 507 369 472 344 q 440 320 396 297 q 351 274 345 270 q 314 250 303 232 q 292 214 290 187 z"},"<":{"x_min":0,"x_max":833,"ha":833,"o":"m 704 583 l 704 476 l 268 298 l 704 120 l 704 13 l 129 250 l 129 347 z"},"'":{"x_min":0,"x_max":178,"ha":178,"o":"m 99 416 l 79 416 l 40 641 q 39 647 39 651 q 38 656 38 659 q 38 685 52 700 q 65 715 89 715 q 112 715 126 701 q 139 687 139 661 q 139 653 139 649 q 139 645 138 641 z"},"=":{"x_min":0,"x_max":833,"ha":833,"o":"m 124 242 l 709 242 l 709 145 l 124 145 z m 124 452 l 709 452 l 709 355 l 124 355 z"},"a":{"x_min":0,"x_max":602,"ha":602,"o":"m 383 291 q 379 292 374 292 q 369 292 360 292 q 280 292 237 255 q 194 218 194 148 q 194 95 217 63 q 239 31 277 31 q 333 31 358 84 q 383 138 383 260 z m 597 15 l 597 -2 q 546 -1 521 0 q 496 0 474 0 l 430 0 q 418 19 409 39 q 401 60 395 82 q 367 32 327 10 q 288 -13 230 -13 q 139 -13 81 32 q 24 77 24 146 q 24 229 113 272 q 202 315 383 321 l 383 325 q 383 413 353 458 q 322 504 264 504 q 206 504 169 464 q 132 424 109 334 l 95 334 l 49 483 q 104 509 163 522 q 221 535 284 535 q 354 535 406 518 q 458 501 488 468 q 512 443 521 408 q 531 374 531 284 l 531 238 q 531 109 545 66 q 560 23 597 15 z"},"L":{"x_min":0,"x_max":677,"ha":677,"o":"m 12 -3 l 12 10 q 53 19 68 55 q 83 92 83 226 l 83 560 q 83 594 70 612 q 56 630 24 638 l 24 652 q 57 650 91 649 q 126 648 163 648 q 202 648 239 649 q 275 650 312 652 l 312 638 q 280 632 266 614 q 252 595 252 560 l 252 236 q 252 99 275 67 q 298 35 370 35 q 457 35 533 82 q 610 129 675 223 l 689 218 l 625 0 l 225 0 q 214 0 192 0 q 169 1 158 1 q 119 1 83 0 q 46 -1 12 -3 z"},"3":{"x_min":0,"x_max":667,"ha":667,"o":"m 205 354 q 225 351 240 350 q 254 348 265 348 q 331 348 365 381 q 400 415 400 478 q 400 535 369 566 q 337 598 281 598 q 219 598 179 555 q 140 512 124 429 l 111 429 l 69 584 q 127 607 187 618 q 248 630 311 630 q 429 630 499 590 q 568 550 568 484 q 568 426 512 387 q 457 348 356 336 q 477 329 541 287 q 605 245 605 173 q 605 86 521 35 q 437 -17 294 -17 q 220 -17 154 -1 q 88 15 27 47 l 85 219 l 98 219 q 111 120 158 67 q 206 14 282 14 q 351 14 389 55 q 428 97 428 170 q 428 242 388 280 q 348 318 272 318 q 260 318 244 316 q 229 315 205 311 z"},";":{"x_min":0,"x_max":333,"ha":333,"o":"m 119 -146 l 102 -131 q 123 -99 134 -70 q 144 -41 145 -12 q 103 -10 83 9 q 62 27 62 62 q 62 100 83 122 q 104 144 141 144 q 180 144 202 116 q 225 88 225 39 q 225 -3 198 -50 q 172 -96 119 -146 z m 62 412 q 62 445 85 468 q 108 491 141 491 q 173 491 196 468 q 219 445 219 412 q 219 379 196 356 q 173 333 141 333 q 108 333 85 356 q 62 378 62 412 z"},"J":{"x_min":0,"x_max":486,"ha":486,"o":"m -10 9 l 48 212 l 62 211 q 73 113 98 64 q 123 15 161 15 q 202 15 218 66 q 233 117 233 296 l 233 546 q 233 588 217 609 q 202 630 165 638 l 165 652 q 173 652 190 651 q 274 648 310 648 q 348 648 442 651 q 457 652 464 652 l 464 638 q 429 631 414 612 q 400 594 400 553 l 400 350 q 400 340 400 313 q 401 285 401 268 q 401 124 342 53 q 283 -18 162 -18 q 109 -18 66 -11 q 22 -4 -10 9 z"},"V":{"x_min":0,"x_max":758,"ha":758,"o":"m -7 639 l -7 651 q 30 649 67 648 q 104 647 141 647 q 181 647 219 648 q 258 649 296 651 l 296 639 q 272 635 261 625 q 250 615 250 596 q 250 585 260 563 q 269 542 294 497 l 455 211 l 554 423 q 576 471 588 507 q 599 543 599 566 q 599 598 582 617 q 564 637 534 639 l 534 651 q 567 649 596 649 q 625 648 653 648 q 679 648 707 649 q 735 649 765 651 l 765 639 q 730 629 687 569 q 644 510 585 391 l 381 -19 l 372 -19 l 136 444 q 77 561 48 598 q 20 635 -7 639 z"},"\"":{"x_min":0,"x_max":345,"ha":345,"o":"m 265 416 l 245 416 l 206 641 q 205 647 205 651 q 204 656 204 659 q 204 685 218 700 q 231 715 255 715 q 279 715 292 700 q 306 686 306 661 q 306 658 306 654 q 305 649 304 641 z m 99 416 l 79 416 l 40 641 q 40 645 39 648 q 39 652 39 659 q 39 685 53 700 q 66 715 89 715 q 112 715 126 701 q 139 687 139 661 q 139 653 139 649 q 139 645 138 641 z"},"7":{"x_min":0,"x_max":667,"ha":667,"o":"m 359 -3 q 333 -1 307 -1 q 281 0 256 0 q 230 0 204 -1 q 178 -1 152 -3 q 154 78 188 147 q 221 217 293 290 q 337 334 419 399 q 501 463 513 493 l 216 493 q 147 493 108 478 q 70 463 49 430 l 39 433 l 101 616 q 129 616 170 614 q 210 613 222 613 l 627 613 q 617 560 525 450 q 505 426 495 413 q 419 319 388 237 q 356 154 356 57 q 356 43 357 28 q 357 13 359 -3 z"},"S":{"x_min":0,"x_max":681,"ha":681,"o":"m 16 45 l 71 231 l 83 231 q 102 126 161 71 q 221 15 315 15 q 393 15 437 51 q 481 86 481 148 q 481 192 449 215 q 418 239 305 261 q 211 280 173 295 q 134 310 110 331 q 83 355 68 389 q 53 422 53 459 q 53 552 135 610 q 217 667 353 667 q 421 667 486 654 q 552 640 609 614 l 563 455 l 550 455 q 529 543 481 587 q 433 631 357 631 q 291 631 250 599 q 208 567 208 518 q 208 498 217 481 q 225 464 242 450 q 268 429 371 412 q 412 404 434 400 q 539 379 588 333 q 638 287 638 211 q 638 109 551 45 q 463 -20 322 -20 q 235 -20 157 -3 q 79 13 16 45 z"},"}":{"x_min":0,"x_max":500,"ha":500,"o":"m 84 740 q 199 740 241 705 q 283 669 283 571 l 283 477 q 283 396 311 366 q 338 336 414 329 l 414 292 q 338 285 311 255 q 283 225 283 144 l 283 50 q 283 -47 242 -83 q 200 -119 90 -119 l 84 -119 l 84 -90 q 142 -89 164 -63 q 186 -38 186 39 l 186 105 q 186 215 212 255 q 238 294 308 310 q 238 326 212 366 q 186 406 186 516 l 186 581 q 186 657 164 683 q 142 709 84 710 z"},"Z":{"x_min":0,"x_max":632,"ha":632,"o":"m 4 0 l 4 9 l 35 52 q 391 553 391 588 q 391 599 375 606 q 359 613 335 613 q 243 613 170 575 q 97 538 33 458 l 19 462 l 78 648 l 617 648 l 617 640 q 463 407 368 248 q 273 89 273 68 q 273 51 286 43 q 299 35 326 35 q 400 35 468 78 q 537 120 631 228 l 644 222 l 570 0 z"},"x":{"x_min":0,"x_max":542,"ha":542,"o":"m 352 430 q 360 441 364 452 q 368 462 368 472 q 368 487 358 498 q 348 509 332 512 l 332 525 q 375 522 396 522 q 417 521 434 521 q 452 521 474 522 q 496 522 537 525 l 537 512 q 502 505 462 474 q 422 442 364 374 l 318 320 l 453 113 q 488 60 511 38 q 534 16 557 10 l 557 -4 q 522 -2 484 -1 q 445 0 401 0 q 358 0 320 -1 q 282 -2 248 -4 l 248 10 q 272 16 283 27 q 294 39 294 58 q 294 76 288 96 q 281 115 269 136 l 227 206 l 182 143 q 163 116 153 95 q 144 74 144 57 q 144 40 157 27 q 169 15 193 10 l 193 -4 q 167 -2 140 -1 q 112 0 81 0 q 50 0 24 -1 q -2 -2 -26 -4 l -26 10 q 18 30 60 69 q 103 107 173 199 l 204 239 l 106 400 q 73 454 48 477 q 23 500 -8 512 l -8 525 q -4 525 4 524 q 102 521 146 521 q 173 521 203 522 q 233 523 278 525 l 278 512 q 258 503 248 490 q 239 478 239 461 q 239 448 245 431 q 251 415 263 397 l 294 350 z"},")":{"x_min":0,"x_max":361,"ha":361,"o":"m 128 -174 l 101 -174 q 143 -103 163 0 q 183 104 183 247 q 183 392 163 496 q 142 601 101 667 l 128 667 q 226 565 270 465 q 315 365 315 247 q 315 129 271 30 q 227 -70 128 -174 z"},"&":{"x_min":0,"x_max":715,"ha":715,"o":"m 297 369 q 326 389 341 420 q 356 451 356 492 q 356 532 337 559 q 317 585 288 585 q 260 585 242 563 q 224 542 224 508 q 224 477 240 445 q 256 414 297 369 z m 440 57 q 379 112 324 167 q 270 222 223 276 q 209 263 203 241 q 196 219 196 190 q 196 125 242 79 q 289 33 354 33 q 381 33 402 39 q 424 45 440 57 z m 197 307 q 162 346 145 383 q 128 421 128 459 q 128 528 180 574 q 233 620 313 620 q 386 620 431 584 q 477 547 477 490 q 477 440 439 404 q 401 367 324 344 q 358 308 402 266 q 445 225 509 168 q 514 182 517 194 q 519 207 519 217 q 519 256 495 279 q 470 302 422 308 l 422 320 l 643 320 q 642 274 621 227 q 600 179 559 127 q 606 84 652 55 q 698 26 742 11 l 742 -2 q 735 -2 721 -1 q 624 0 583 0 q 549 0 534 0 q 518 0 506 -1 l 471 32 q 427 6 380 -6 q 333 -19 281 -19 q 171 -19 106 26 q 41 70 41 145 q 41 196 80 237 q 120 277 197 307 z"},"_":{"x_min":0,"x_max":500,"ha":500,"o":"m 0 -136 l 500 -136 l 500 -236 l 0 -236 z"},"v":{"x_min":0,"x_max":574,"ha":574,"o":"m 292 -14 l 279 -14 l 57 427 q 33 475 17 492 q 2 509 -17 513 l -17 524 q 21 522 57 522 q 93 521 127 521 q 162 521 195 522 q 228 522 261 524 l 261 513 q 234 501 222 487 q 210 473 210 453 q 210 441 215 425 q 219 410 228 391 l 335 180 l 429 391 q 437 408 440 423 q 444 439 444 452 q 444 478 429 492 q 415 507 383 513 l 383 524 q 406 522 431 522 q 456 521 481 521 q 506 521 533 522 q 560 522 587 524 l 587 513 q 557 505 531 473 q 504 440 472 373 z"},"O":{"x_min":0,"x_max":829,"ha":829,"o":"m 414 14 q 509 14 556 91 q 602 167 602 325 q 602 483 556 559 q 510 635 414 635 q 318 635 272 560 q 227 484 227 325 q 227 166 273 90 q 318 14 414 14 z m 37 326 q 37 402 67 466 q 96 529 154 579 q 205 623 271 645 q 336 667 413 667 q 494 667 558 645 q 622 623 674 578 q 733 527 762 464 q 792 400 792 326 q 792 252 762 189 q 732 125 672 72 q 623 28 556 4 q 490 -19 415 -19 q 338 -19 270 5 q 202 29 151 74 q 96 123 67 188 q 37 253 37 326 z"},"(":{"x_min":0,"x_max":361,"ha":361,"o":"m 234 -174 q 134 -69 90 30 q 46 129 46 247 q 46 364 91 465 q 136 565 234 667 l 260 667 q 219 601 198 496 q 178 392 178 247 q 178 104 198 0 q 218 -103 260 -174 z"},"C":{"x_min":0,"x_max":748,"ha":748,"o":"m 723 71 q 659 25 585 3 q 511 -19 422 -19 q 345 -19 276 4 q 208 26 156 69 q 96 118 67 181 q 38 245 38 328 q 38 480 147 573 q 255 667 433 667 q 507 667 574 648 q 642 630 703 593 l 655 436 l 641 438 q 626 534 577 583 q 527 632 446 632 q 345 632 288 553 q 230 474 230 333 q 230 183 287 99 q 345 16 448 16 q 535 16 585 71 q 635 125 654 241 l 668 242 z"},"W":{"x_min":0,"x_max":1014,"ha":1014,"o":"m 111 444 q 105 458 94 483 q 30 629 -4 639 l -4 651 q 31 649 63 649 q 95 648 124 648 q 158 648 196 649 q 234 649 276 651 l 276 639 q 252 636 240 623 q 228 611 228 590 q 228 576 236 553 q 244 529 259 497 l 385 234 l 554 667 l 564 667 l 774 231 l 840 420 q 856 465 865 502 q 873 539 873 562 q 873 595 854 616 q 835 637 803 639 l 803 651 q 839 649 870 649 q 901 648 924 648 q 942 648 964 649 q 986 649 1014 651 l 1014 639 q 987 629 952 567 q 917 505 873 391 l 716 -19 l 706 -19 l 501 434 l 323 -19 l 313 -19 z"},"A":{"x_min":0,"x_max":778,"ha":778,"o":"m 406 288 l 321 468 l 236 288 z m -7 -3 l -7 9 q 28 23 67 74 q 105 125 157 226 l 382 667 l 390 667 l 624 231 q 698 94 729 53 q 760 13 785 9 l 785 -3 q 757 -1 727 -1 q 697 0 647 0 q 584 0 543 -1 q 501 -1 461 -3 l 461 9 q 485 12 496 21 q 506 31 506 50 q 506 67 493 101 q 481 136 456 186 l 422 255 l 220 255 l 204 221 q 179 169 167 134 q 155 100 155 78 q 155 49 174 31 q 193 13 227 9 l 227 -3 q 202 -1 175 -1 q 148 0 107 0 q 65 0 40 -1 q 16 -1 -7 -3 z"},"f":{"x_min":0,"x_max":347,"ha":347,"o":"m 225 233 l 225 200 q 225 86 239 52 q 252 18 289 8 l 289 -3 q 265 -1 236 -1 q 207 0 151 0 q 101 0 72 -1 q 43 -1 17 -3 l 17 8 q 53 19 66 51 q 80 83 80 183 l 80 233 l 80 463 l -2 463 l -1 468 l 19 509 l 82 509 q 86 622 140 676 q 194 729 304 729 q 326 729 347 727 q 368 725 388 720 l 335 580 l 323 580 q 305 652 293 671 q 282 689 264 689 q 242 689 234 666 q 225 643 225 577 l 225 509 l 325 509 l 325 503 l 307 463 l 225 463 z"},"Q":{"x_min":0,"x_max":829,"ha":829,"o":"m 213 -114 l 198 -79 q 231 -58 273 -42 q 315 -26 368 -15 q 215 5 126 97 q 37 189 37 326 q 37 402 67 466 q 96 529 154 579 q 205 623 271 645 q 336 667 413 667 q 494 667 558 645 q 622 623 674 578 q 733 527 762 464 q 792 400 792 326 q 792 239 750 165 q 708 90 631 43 q 583 13 533 -1 q 483 -16 429 -16 q 471 -22 521 -38 q 570 -54 640 -83 q 646 -85 656 -90 q 722 -119 751 -119 q 759 -119 768 -118 q 776 -116 784 -113 l 785 -124 q 721 -162 662 -183 q 603 -205 551 -210 q 532 -207 500 -191 q 467 -174 416 -142 q 405 -135 385 -122 q 320 -79 288 -79 q 271 -79 255 -87 q 238 -95 213 -114 z m 414 14 q 509 14 556 91 q 602 167 602 325 q 602 483 556 559 q 510 635 414 635 q 318 635 272 560 q 227 484 227 325 q 227 166 273 90 q 318 14 414 14 z"},"w":{"x_min":0,"x_max":875,"ha":875,"o":"m 652 192 l 733 391 q 740 410 744 426 q 748 441 748 453 q 748 478 733 492 q 719 507 687 513 l 687 524 q 713 522 738 522 q 763 521 788 521 q 813 521 839 522 q 864 522 890 524 l 890 513 q 861 503 833 468 q 805 432 779 373 l 607 -14 l 593 -14 l 435 340 l 271 -14 l 258 -14 l 86 386 q 52 464 34 488 q 15 511 -7 513 l -7 524 q 29 522 64 522 q 100 521 133 521 q 167 521 199 522 q 232 522 265 524 l 265 513 q 241 505 229 490 q 216 474 216 453 q 216 438 220 422 q 224 406 231 391 l 325 197 l 486 535 l 500 535 z"},"-":{"x_min":0,"x_max":348,"ha":348,"o":"m 290 318 l 259 203 l 58 203 l 89 318 z"},"E":{"x_min":0,"x_max":698,"ha":698,"o":"m 12 -3 l 12 10 q 53 19 68 55 q 83 92 83 226 l 83 558 q 83 592 70 610 q 56 628 24 636 l 24 650 l 30 650 q 134 648 185 648 l 599 648 l 655 481 l 640 477 q 578 547 498 580 q 418 614 313 614 q 289 614 277 614 q 265 613 255 612 l 255 362 q 271 361 287 360 q 303 360 319 360 q 407 360 464 388 q 521 417 537 468 l 551 468 l 551 219 l 537 219 q 520 272 464 300 q 408 328 317 328 q 292 328 279 328 q 266 327 255 326 l 255 236 q 255 100 277 67 q 299 35 371 35 q 460 35 538 80 q 615 125 684 217 l 701 211 l 637 0 l 225 0 q 214 0 192 0 q 169 1 158 1 q 119 1 83 0 q 46 -1 12 -3 z"},"s":{"x_min":0,"x_max":565,"ha":565,"o":"m 18 41 l 74 206 l 88 204 q 104 113 146 65 q 189 18 256 18 q 308 18 341 46 q 374 73 374 116 q 374 150 351 169 q 328 188 242 210 q 128 239 91 272 q 54 306 54 367 q 54 440 122 487 q 190 534 301 534 q 354 534 405 523 q 456 512 503 490 l 457 354 l 444 355 q 423 426 383 466 q 342 505 289 505 q 248 505 219 479 q 190 454 190 418 q 190 357 307 333 q 328 328 340 325 q 447 301 486 267 q 526 232 526 169 q 526 84 453 35 q 380 -14 252 -14 q 190 -14 130 0 q 70 14 18 41 z"},">":{"x_min":0,"x_max":833,"ha":833,"o":"m 129 583 l 704 347 l 704 250 l 129 13 l 129 120 l 566 298 l 129 476 z"},"l":{"x_min":0,"x_max":301,"ha":301,"o":"m 81 580 q 81 644 70 662 q 58 679 25 682 l 25 693 q 84 700 135 709 q 186 718 228 729 q 227 699 226 653 q 225 607 225 546 l 225 200 q 225 86 239 53 q 252 19 289 9 l 289 -3 q 265 -1 236 -1 q 207 0 151 0 q 101 0 72 -1 q 43 -1 17 -3 l 17 9 q 54 21 67 53 q 81 86 81 192 l 81 233 z"},"8":{"x_min":0,"x_max":667,"ha":667,"o":"m 276 280 q 234 254 213 220 q 191 186 191 144 q 191 85 230 50 q 270 14 334 14 q 389 14 423 46 q 458 78 458 128 q 458 180 418 214 q 379 248 276 280 z m 363 375 q 398 397 416 428 q 433 459 433 499 q 433 542 403 571 q 372 600 326 600 q 278 600 249 574 q 220 547 220 505 q 220 462 255 430 q 289 399 363 375 z m 406 355 q 518 326 568 283 q 619 241 619 176 q 619 89 538 37 q 456 -16 319 -16 q 191 -16 112 31 q 33 77 33 150 q 33 211 84 251 q 135 290 233 305 q 156 331 117 372 q 77 412 77 465 q 77 538 146 584 q 215 630 329 630 q 444 630 510 592 q 576 554 576 489 q 576 438 532 403 q 487 368 406 355 z"},"\\":{"x_min":0,"x_max":597,"ha":597,"o":"m 0 667 l 73 667 l 597 -83 l 597 -93 l 524 -93 l 0 657 z"},"e":{"x_min":0,"x_max":616,"ha":616,"o":"m 405 359 q 403 426 377 465 q 351 504 309 504 q 267 504 239 466 q 210 428 201 359 z m 575 323 l 200 323 l 200 320 q 198 290 198 275 q 198 162 244 99 q 290 35 370 35 q 438 35 485 82 q 532 128 556 219 l 583 195 q 552 91 486 39 q 420 -13 318 -13 q 191 -13 112 64 q 32 141 32 263 q 32 383 111 459 q 189 535 313 535 q 424 535 493 480 q 561 425 575 323 z"},"b":{"x_min":0,"x_max":667,"ha":667,"o":"m 478 259 q 478 372 443 432 q 409 492 345 492 q 281 492 247 432 q 213 373 213 259 q 213 145 246 84 q 280 24 343 24 q 409 24 444 84 q 478 144 478 259 z m 204 77 q 199 59 190 41 q 182 22 170 0 l 134 0 q 86 0 60 0 q 34 -1 9 -2 l 9 9 q 44 17 58 61 q 72 105 72 233 l 72 579 q 72 646 61 663 q 50 679 19 681 l 19 692 q 66 698 115 708 q 165 717 217 729 q 215 680 214 634 q 213 588 213 546 l 213 454 q 246 494 288 513 q 330 533 382 533 q 492 533 566 454 q 640 374 640 256 q 640 135 567 61 q 493 -14 376 -14 q 318 -14 276 8 q 234 30 204 77 z"},"%":{"x_min":0,"x_max":711,"ha":711,"o":"m 533 7 q 557 7 569 40 q 580 73 580 143 q 580 213 569 246 q 557 279 533 279 q 509 279 497 247 q 485 216 485 153 q 485 75 496 41 q 507 7 533 7 z m 381 143 q 381 213 424 259 q 467 304 532 304 q 598 304 641 259 q 684 213 684 144 q 684 75 640 28 q 597 -19 533 -19 q 469 -19 425 27 q 381 74 381 143 z m 109 -19 l 529 630 l 602 630 l 182 -19 z m 178 332 q 202 332 214 365 q 225 398 225 468 q 225 538 214 571 q 202 604 178 604 q 154 604 143 573 q 131 542 131 478 q 131 398 142 365 q 153 332 178 332 z m 27 469 q 27 539 70 584 q 113 630 178 630 q 244 630 287 584 q 330 539 330 469 q 330 400 286 354 q 242 307 178 307 q 114 307 70 354 q 27 400 27 469 z"},"m":{"x_min":0,"x_max":1000,"ha":1000,"o":"m 6 -3 l 6 8 q 43 20 56 54 q 70 89 70 210 l 70 233 l 70 372 q 70 436 58 454 q 46 472 14 474 l 14 486 q 71 493 119 502 q 167 511 205 522 l 205 408 q 230 472 277 503 q 323 535 391 535 q 456 535 497 501 q 538 468 548 407 q 574 472 620 503 q 666 534 735 534 q 826 534 867 477 q 908 419 908 289 l 908 221 q 908 90 922 54 q 936 19 974 8 l 974 -3 q 950 -1 920 -1 q 891 0 835 0 q 785 0 756 -1 q 727 -1 700 -3 l 700 8 q 737 20 751 53 q 765 86 765 193 l 765 233 l 765 280 q 765 385 743 434 q 721 483 673 483 q 622 483 589 427 q 557 372 557 280 l 557 210 q 557 88 571 53 q 585 19 622 8 l 622 -3 q 597 -1 568 -1 q 540 0 486 0 q 438 0 409 -1 q 380 -1 354 -3 l 354 8 q 391 20 405 53 q 419 86 419 193 l 419 233 l 419 280 q 419 387 397 434 q 375 482 327 482 q 277 482 245 426 q 213 371 213 280 l 213 210 q 213 88 227 54 q 241 19 278 8 l 278 -3 q 253 -1 225 -1 q 196 0 140 0 q 90 0 61 -1 q 32 -1 6 -3 z"},"#":{"x_min":0,"x_max":769,"ha":769,"o":"m 344 416 l 300 293 l 429 293 l 472 416 z m 347 715 l 452 715 l 380 512 l 504 512 l 577 715 l 681 715 l 609 512 l 747 512 l 711 415 l 575 415 l 532 294 l 675 294 l 640 198 l 498 198 l 426 -5 l 321 -5 l 393 198 l 269 198 l 196 -5 l 91 -5 l 163 198 l 22 198 l 58 294 l 198 294 l 241 415 l 93 415 l 129 512 l 275 512 z"},",":{"x_min":0,"x_max":333,"ha":333,"o":"m 110 -146 l 93 -131 q 113 -100 124 -70 q 134 -41 135 -12 q 93 -10 73 8 q 53 26 53 62 q 53 100 74 122 q 95 144 131 144 q 170 144 193 116 q 216 87 216 39 q 216 -3 189 -50 q 163 -96 110 -146 z"},"n":{"x_min":0,"x_max":657,"ha":657,"o":"m 7 -3 l 7 8 q 44 20 58 54 q 72 89 72 201 l 72 233 l 72 372 q 72 436 60 454 q 49 472 16 474 l 16 485 q 73 492 121 501 q 168 510 207 521 l 207 407 q 233 471 278 503 q 322 534 387 534 q 490 534 540 474 q 590 414 590 289 l 590 201 q 590 87 604 53 q 618 19 655 8 l 655 -3 q 630 -1 602 -1 q 573 0 517 0 q 466 0 437 -1 q 408 -1 382 -3 l 382 8 q 418 20 432 52 q 446 85 446 185 l 446 233 l 446 280 q 446 383 421 430 q 396 477 341 477 q 284 477 250 423 q 215 370 215 280 l 215 210 q 215 88 229 53 q 243 19 280 8 l 280 -3 q 255 -1 227 -1 q 198 0 142 0 q 91 0 62 -1 q 33 -1 7 -3 z"},"h":{"x_min":0,"x_max":657,"ha":657,"o":"m 7 -3 l 7 8 q 44 20 58 54 q 72 89 72 201 l 72 233 l 72 579 q 72 645 61 662 q 50 678 19 681 l 19 692 q 68 698 118 708 q 168 717 217 729 q 215 688 214 642 q 213 596 213 546 l 213 419 q 238 477 281 506 q 324 534 387 534 q 490 534 540 474 q 590 413 590 289 l 590 201 q 590 87 604 53 q 618 19 655 8 l 655 -3 q 630 -1 602 -1 q 573 0 517 0 q 466 0 437 -1 q 408 -1 382 -3 l 382 8 q 418 20 432 52 q 446 85 446 186 l 446 235 l 446 280 q 446 383 421 430 q 396 477 341 477 q 284 477 250 423 q 215 370 215 280 l 215 210 q 215 88 229 53 q 243 19 280 8 l 280 -3 q 255 -1 227 -1 q 198 0 142 0 q 91 0 62 -1 q 33 -1 7 -3 z"},"z":{"x_min":0,"x_max":569,"ha":569,"o":"m 13 0 l 279 389 q 301 421 309 437 q 317 453 317 462 q 317 475 306 483 q 296 491 278 491 q 231 491 174 454 q 116 416 56 347 l 41 349 l 97 521 l 519 521 l 261 107 q 252 92 247 80 q 242 67 242 59 q 242 47 253 40 q 263 32 281 32 q 333 32 402 74 q 470 116 528 186 l 542 185 l 484 0 z"},"B":{"x_min":0,"x_max":755,"ha":755,"o":"m 248 364 q 253 364 264 363 q 294 362 304 362 q 397 362 441 394 q 484 425 484 494 q 484 558 441 587 q 397 616 303 616 q 296 616 282 615 q 269 615 248 613 z m 248 327 l 248 203 q 248 83 269 58 q 291 32 359 32 q 445 32 488 69 q 531 105 531 178 q 531 260 486 295 q 440 330 332 330 q 319 330 298 329 q 277 329 248 327 z m 14 0 l 14 8 q 54 18 68 52 q 83 85 83 215 l 83 226 l 83 556 q 83 596 70 615 q 56 633 25 638 l 25 649 q 50 648 76 648 q 102 648 146 648 q 191 648 258 649 q 325 650 347 650 q 509 650 585 614 q 661 579 661 502 q 661 439 607 402 q 553 365 445 353 q 581 346 649 302 q 718 259 718 182 q 718 90 634 45 q 550 0 379 0 l 160 0 z"},"K":{"x_min":0,"x_max":708,"ha":708,"o":"m 14 -3 l 14 10 q 56 19 71 56 q 86 94 86 226 l 86 560 q 86 594 72 612 q 58 630 26 638 l 26 652 q 60 650 94 649 q 128 648 164 648 q 203 648 239 649 q 276 650 312 652 l 312 638 q 280 632 266 614 q 252 595 252 560 l 252 358 l 408 497 q 437 522 453 548 q 470 574 470 592 q 470 612 457 625 q 444 637 420 639 l 420 652 q 461 649 491 648 q 521 647 545 647 q 571 647 605 648 q 639 649 687 652 l 687 640 q 647 628 603 601 q 559 573 478 504 l 310 362 q 394 362 449 333 q 505 304 553 234 q 572 206 604 152 q 672 36 719 10 l 719 -1 q 699 0 674 0 q 650 0 601 0 q 552 0 527 0 q 502 0 481 -1 q 457 36 376 223 l 370 238 q 349 285 330 306 q 312 327 290 327 q 270 327 261 312 q 252 297 252 262 l 252 226 q 252 97 267 59 q 283 20 325 10 l 325 -3 q 292 -1 257 -1 q 222 0 164 0 q 109 0 77 -1 q 44 -1 14 -3 z"},"R":{"x_min":0,"x_max":752,"ha":752,"o":"m 249 362 q 258 362 274 361 q 309 360 320 360 q 402 360 448 394 q 493 428 493 489 q 493 552 448 583 q 403 615 313 615 q 291 615 277 615 q 263 615 249 614 z m 250 226 q 250 96 265 58 q 280 20 322 10 l 322 -3 q 290 -1 255 -1 q 221 0 163 0 q 108 0 75 -1 q 43 -1 13 -3 l 13 10 q 54 19 69 55 q 84 92 84 226 l 84 558 q 84 592 71 610 q 57 628 25 636 l 25 650 q 62 649 98 648 q 134 648 186 648 l 291 648 q 511 648 594 612 q 677 577 677 490 q 677 423 611 383 q 546 342 431 338 q 512 332 560 297 q 608 263 638 189 q 642 179 650 159 q 700 35 760 11 l 760 -2 q 709 -1 656 0 q 604 0 518 0 q 496 40 472 125 q 448 210 426 247 q 401 289 364 309 q 327 328 272 328 q 269 328 261 328 q 253 327 250 327 z"},"T":{"x_min":0,"x_max":720,"ha":720,"o":"m 1 467 l 47 648 l 674 648 l 718 467 l 707 463 q 654 535 597 575 q 540 615 494 615 q 465 615 454 598 q 444 581 444 504 l 444 226 q 444 95 459 57 q 475 20 518 10 l 518 -3 q 484 -1 449 -1 q 414 0 355 0 q 300 0 267 -1 q 233 -1 202 -3 l 202 10 q 244 19 260 55 q 275 91 275 226 l 275 504 q 275 581 264 598 q 254 615 225 615 q 179 615 122 575 q 65 535 12 463 z"},"P":{"x_min":0,"x_max":681,"ha":681,"o":"m 25 649 q 65 648 108 648 q 150 648 222 648 l 292 648 q 398 648 454 642 q 509 637 551 624 q 611 605 645 567 q 679 529 679 479 q 679 398 586 350 q 494 302 334 302 q 319 302 299 303 q 278 304 252 305 l 252 226 q 252 98 267 59 q 283 20 325 10 l 325 -3 q 293 -1 258 -1 q 224 0 165 0 q 109 0 76 -1 q 43 -1 13 -3 l 13 10 q 54 19 69 55 q 84 92 84 226 l 84 558 q 84 592 71 610 q 57 628 25 636 z m 252 343 q 267 340 281 338 q 295 337 311 337 q 397 337 443 374 q 489 411 489 479 q 489 547 441 581 q 393 614 295 614 q 285 614 260 612 q 255 612 252 612 z"},"|":{"x_min":0,"x_max":500,"ha":500,"o":"m 200 764 l 301 764 l 301 -236 l 200 -236 z"},"t":{"x_min":0,"x_max":347,"ha":347,"o":"m 228 243 q 228 109 243 65 q 257 21 296 10 l 296 -2 l 299 -2 q 240 -1 123 0 q 102 10 94 41 q 85 72 85 156 l 85 228 l 87 470 l 31 470 l 36 499 q 99 532 143 574 q 187 617 217 674 l 233 674 q 230 648 229 616 q 228 584 228 547 l 228 512 l 343 512 l 331 470 l 228 470 z"},"M":{"x_min":0,"x_max":868,"ha":868,"o":"m 124 295 q 124 150 147 91 q 171 31 230 10 l 230 -3 q 193 -1 164 -1 q 135 0 112 0 q 83 0 52 -1 q 21 -1 -13 -3 l -13 9 q 41 32 64 96 q 87 161 87 295 l 87 492 q 87 571 72 598 q 58 625 19 637 l 19 650 q 69 649 98 648 q 127 648 152 648 q 168 648 200 648 q 232 649 248 649 q 302 538 354 439 q 406 341 459 250 l 616 650 q 653 649 672 648 q 690 648 706 648 q 730 648 759 649 q 787 649 844 652 l 844 638 q 812 633 798 614 q 784 596 784 560 l 784 226 q 784 98 799 58 q 814 19 856 10 l 856 -3 q 824 -1 790 -1 q 755 0 699 0 q 644 0 611 -1 q 578 -1 546 -3 l 546 10 q 586 18 601 53 q 616 87 616 226 l 616 554 l 392 -19 l 384 -19 q 325 114 260 255 q 196 396 124 545 z"},"g":{"x_min":0,"x_max":616,"ha":616,"o":"m 598 604 l 553 465 l 544 465 q 536 499 517 518 q 498 537 472 537 q 457 537 427 515 l 425 513 q 491 481 521 442 q 551 403 551 351 q 551 288 506 241 q 461 194 386 179 q 352 172 304 169 q 251 166 251 147 q 251 125 334 116 q 378 111 407 107 q 510 92 553 61 q 596 30 596 -29 q 596 -106 513 -152 q 429 -197 285 -197 q 160 -197 83 -160 q 7 -123 7 -63 q 7 -16 53 14 q 100 44 194 58 q 144 62 119 75 q 94 88 94 111 q 94 137 125 154 q 155 171 218 181 q 135 197 89 242 q 43 286 43 350 q 43 429 114 482 q 186 535 295 535 q 313 535 335 532 q 358 529 391 523 q 430 565 473 586 q 516 607 563 607 q 572 607 580 606 q 589 605 598 604 z m 294 504 q 250 504 222 461 q 195 419 195 350 q 195 280 223 241 q 250 201 299 201 q 343 201 368 243 q 393 286 393 361 q 393 428 366 466 q 340 504 294 504 z m 159 -62 q 159 -111 195 -139 q 231 -166 296 -166 q 368 -166 411 -137 q 453 -109 453 -61 q 453 -15 410 10 q 367 34 287 34 q 229 34 194 8 q 159 -19 159 -62 z"},"j":{"x_min":0,"x_max":296,"ha":296,"o":"m 81 372 q 81 437 69 454 q 58 472 25 474 l 25 486 q 89 494 139 503 q 188 511 228 521 q 227 479 226 434 q 225 388 225 338 l 225 228 q 225 180 226 124 q 226 69 226 61 q 226 -66 162 -132 q 98 -197 -28 -197 q -54 -197 -76 -194 q -99 -192 -120 -187 l -46 -22 l -35 -22 q -22 -91 -4 -123 q 14 -156 39 -156 q 63 -156 72 -128 q 81 -100 81 1 l 81 79 z m 73 649 q 73 683 95 706 q 118 729 151 729 q 184 729 207 706 q 229 683 229 649 q 229 615 207 592 q 184 569 151 569 q 117 569 95 591 q 73 614 73 649 z"},"i":{"x_min":0,"x_max":301,"ha":301,"o":"m 73 649 q 73 683 95 706 q 118 729 151 729 q 184 729 207 706 q 229 683 229 649 q 229 615 207 592 q 184 569 151 569 q 117 569 95 591 q 73 614 73 649 z m 228 521 q 227 490 226 453 q 225 415 225 338 l 225 200 q 225 86 239 53 q 252 19 289 9 l 289 -3 q 265 -1 236 -1 q 207 0 151 0 q 101 0 72 -1 q 43 -1 17 -3 l 17 9 q 53 21 67 54 q 81 86 81 192 l 81 233 l 81 372 q 81 436 70 454 q 58 471 25 474 l 25 486 q 89 494 139 503 q 188 511 228 521 z"},"y":{"x_min":0,"x_max":588,"ha":588,"o":"m 41 -192 l 106 -15 l 120 -19 q 126 -49 140 -62 q 154 -76 178 -76 q 211 -76 231 -57 q 251 -37 251 -4 q 251 15 245 37 q 238 59 225 87 l 61 429 l 61 430 q 24 505 -6 513 l -6 524 q 32 522 68 522 q 103 521 137 521 q 171 521 204 522 q 237 522 269 524 l 269 513 q 245 504 232 489 q 220 474 220 453 q 220 439 225 423 q 229 407 237 391 l 350 172 l 440 391 q 447 409 451 425 q 455 441 455 453 q 455 478 441 492 q 427 507 397 513 l 397 524 q 421 522 446 522 q 472 521 498 521 q 525 521 552 522 q 580 522 609 524 l 609 513 q 575 496 549 466 q 523 436 492 373 l 345 77 q 263 -89 206 -143 q 149 -197 75 -197 q 66 -197 57 -196 q 49 -194 41 -192 z"},"@":{"x_min":0,"x_max":986,"ha":986,"o":"m 574 156 q 544 107 509 83 q 473 60 430 60 q 361 60 322 104 q 282 149 282 227 q 282 283 307 335 q 331 388 377 431 q 411 462 449 479 q 488 495 528 495 q 575 495 601 473 q 628 451 636 406 l 660 486 l 753 486 l 668 184 l 667 181 q 660 152 660 138 q 660 115 670 102 q 680 89 697 89 q 713 89 738 101 q 764 113 786 132 q 836 175 863 238 q 890 301 890 377 q 890 511 798 595 q 706 678 559 678 q 492 678 431 660 q 371 641 320 605 q 235 546 190 454 q 144 363 144 251 q 144 87 247 -9 q 350 -105 523 -105 q 604 -105 679 -80 q 754 -56 829 -4 l 848 -29 q 774 -84 693 -112 q 611 -139 523 -139 q 432 -139 353 -117 q 275 -94 218 -52 q 144 3 104 84 q 65 165 65 261 q 65 337 90 407 q 116 477 165 536 q 236 621 334 667 q 433 712 547 712 q 717 712 820 620 q 922 527 922 374 q 922 295 893 228 q 864 160 810 111 q 781 85 748 72 q 715 58 681 58 q 633 58 605 83 q 578 109 574 156 z m 546 463 q 516 463 491 441 q 466 419 442 371 q 414 315 399 266 q 385 217 385 177 q 385 138 402 115 q 418 93 447 93 q 478 93 508 123 q 537 153 564 212 q 583 257 595 302 q 606 348 606 382 q 606 421 590 442 q 575 463 546 463 z"},".":{"x_min":0,"x_max":333,"ha":333,"o":"m 53 66 q 53 99 76 122 q 98 144 131 144 q 164 144 187 121 q 210 99 210 66 q 210 33 187 10 q 164 -14 131 -14 q 98 -14 76 9 q 53 32 53 66 z"},"p":{"x_min":0,"x_max":666,"ha":666,"o":"m -3 -198 l -3 -187 q 34 -177 48 -143 q 62 -108 62 21 l 62 33 l 62 374 q 62 438 51 455 q 39 471 6 474 l 6 485 q 42 488 89 497 q 135 505 191 520 l 191 424 q 216 479 261 507 q 306 535 367 535 q 484 535 558 460 q 631 386 631 265 q 631 147 556 68 q 482 -12 372 -12 q 320 -12 278 8 q 236 27 203 67 l 203 23 q 203 -109 219 -143 q 236 -177 281 -187 l 281 -198 q 238 -196 201 -196 q 164 -195 133 -195 q 102 -195 68 -196 q 34 -196 -3 -198 z m 336 29 q 400 29 435 89 q 469 149 469 262 q 469 377 435 437 q 400 497 334 497 q 271 497 237 437 q 203 376 203 262 q 203 149 237 89 q 271 29 336 29 z"},"X":{"x_min":0,"x_max":736,"ha":736,"o":"m -5 -3 l -5 9 q 48 33 125 105 q 201 178 297 294 l 169 492 q 122 565 92 596 q 62 627 31 639 l 31 652 q 71 650 110 649 q 148 648 184 648 q 223 648 267 649 q 311 650 358 652 l 358 639 q 332 634 319 623 q 306 611 306 594 q 306 581 313 563 q 320 546 334 526 l 405 422 q 457 485 479 522 q 501 559 501 583 q 501 604 487 618 q 473 632 444 639 l 444 652 q 477 650 508 649 q 540 648 568 648 q 599 648 634 649 q 668 650 707 652 l 707 639 q 659 625 594 568 q 529 511 426 391 l 557 200 q 619 110 660 68 q 701 26 740 9 l 740 -3 q 689 -1 644 -1 q 599 0 558 0 q 515 0 467 -1 q 418 -1 364 -3 l 364 9 q 391 17 405 31 q 419 46 419 65 q 419 85 405 118 q 391 151 366 188 l 318 260 l 312 253 q 207 115 207 71 q 207 48 223 33 q 238 17 269 9 l 269 -3 q 228 -1 191 -1 q 154 0 121 0 q 92 0 61 -1 q 29 -1 -5 -3 z"},"*":{"x_min":0,"x_max":500,"ha":500,"o":"m 228 517 l 184 648 l 314 648 l 270 516 l 382 598 l 422 475 l 284 476 l 395 396 l 290 320 l 250 451 l 209 320 l 104 397 l 215 477 l 78 475 l 119 598 z"},"Y":{"x_min":0,"x_max":714,"ha":714,"o":"m 205 7 q 246 16 260 54 q 275 93 275 227 l 275 290 l 128 508 q 81 579 50 609 q 19 639 -6 640 l -6 651 q 33 649 69 649 q 106 648 141 648 q 183 648 221 649 q 259 650 297 652 l 297 640 q 279 637 271 628 q 263 620 263 603 q 263 591 270 576 q 276 561 288 544 l 426 353 l 516 494 q 537 526 548 550 q 558 574 558 590 q 558 612 542 625 q 526 639 497 640 l 497 652 q 526 650 555 649 q 583 648 612 648 q 640 648 667 649 q 693 650 720 652 l 720 640 q 688 634 646 592 q 603 549 551 472 l 437 304 l 437 228 q 437 94 452 56 q 467 17 507 8 l 507 -3 q 455 -1 416 -1 q 378 0 353 0 q 319 0 282 -1 q 245 -1 205 -3 z"},"c":{"x_min":0,"x_max":583,"ha":583,"o":"m 549 476 l 501 325 l 489 325 q 481 414 445 460 q 409 506 347 506 q 272 506 231 443 q 190 379 190 264 q 190 154 237 89 q 284 25 363 25 q 415 25 455 58 q 496 92 521 156 l 549 134 q 518 58 463 21 q 409 -15 327 -15 q 196 -15 115 61 q 34 137 34 258 q 34 383 114 459 q 194 535 327 535 q 386 535 441 520 q 497 505 549 476 z"},"!":{"x_min":0,"x_max":333,"ha":333,"o":"m 147 191 l 147 197 q 147 235 140 278 q 132 321 109 400 q 107 405 104 415 q 79 495 79 547 q 79 603 103 635 q 126 667 166 667 q 208 667 231 634 q 254 601 254 540 q 254 493 217 374 q 210 350 206 337 q 197 307 192 271 q 187 235 186 191 z m 88 66 q 88 99 110 122 q 133 144 166 144 q 199 144 222 121 q 245 99 245 66 q 245 33 222 10 q 198 -14 166 -14 q 133 -14 110 9 q 88 32 88 66 z"},"/":{"x_min":0,"x_max":597,"ha":597,"o":"m 0 -93 l 0 -83 l 524 667 l 597 667 l 597 657 l 73 -93 z"},"[":{"x_min":0,"x_max":361,"ha":361,"o":"m 217 516 l 217 -23 q 217 -103 235 -125 q 253 -148 307 -153 l 307 -174 q 189 -174 140 -141 q 92 -108 92 -28 l 92 521 q 92 601 140 634 q 189 667 307 667 l 307 646 q 253 641 235 618 q 217 595 217 516 z"},"6":{"x_min":0,"x_max":667,"ha":667,"o":"m 607 573 l 558 432 l 546 432 q 526 515 484 558 q 442 600 380 600 q 296 600 253 531 q 211 461 211 323 l 211 313 q 236 361 281 385 q 325 409 389 409 q 493 409 561 352 q 628 294 628 206 q 628 109 551 47 q 474 -16 352 -16 q 209 -16 126 68 q 43 151 43 295 q 43 447 134 539 q 225 630 378 630 q 439 630 497 616 q 554 602 607 573 z m 221 192 q 221 111 254 62 q 287 14 342 14 q 401 14 431 61 q 461 107 461 200 q 461 280 429 324 q 398 369 342 369 q 287 369 254 322 q 221 274 221 192 z"},"r":{"x_min":0,"x_max":412,"ha":412,"o":"m 17 -3 l 17 9 q 54 21 67 53 q 81 86 81 192 l 81 233 l 81 372 q 81 436 70 454 q 58 471 25 474 l 25 486 q 91 494 141 503 q 191 512 225 522 l 225 400 q 256 467 299 501 q 341 535 396 535 q 404 535 408 535 q 412 535 416 534 l 361 371 l 348 371 q 340 381 330 386 q 320 391 308 391 q 268 391 246 354 q 225 317 225 248 l 225 200 q 225 86 239 53 q 252 19 289 9 l 289 -3 q 265 -1 236 -1 q 207 0 151 0 q 101 0 72 -1 q 43 -1 17 -3 z"},"2":{"x_min":0,"x_max":667,"ha":667,"o":"m 40 0 q 57 73 97 127 q 137 181 202 220 q 219 230 251 248 q 321 288 340 308 q 365 333 376 365 q 388 396 388 437 q 388 516 359 557 q 329 597 271 597 q 208 597 169 550 q 129 503 112 406 l 100 404 l 54 575 q 111 603 169 616 q 228 630 286 630 q 411 630 489 575 q 566 521 566 434 q 566 386 542 350 q 517 313 464 283 q 436 267 365 245 q 294 224 262 211 q 216 194 194 174 q 171 155 166 129 l 396 129 q 458 129 500 148 q 542 167 575 210 l 586 208 l 526 -3 q 499 -1 460 -1 q 422 0 372 0 z"},"{":{"x_min":0,"x_max":500,"ha":500,"o":"m 416 740 l 416 710 q 357 709 335 684 q 314 658 314 581 l 314 516 q 314 406 288 366 q 262 326 192 310 q 262 294 288 255 q 314 215 314 105 l 314 39 q 314 -38 335 -63 q 357 -89 416 -90 l 416 -119 q 301 -119 260 -84 q 218 -48 218 50 l 218 144 q 218 225 190 255 q 163 285 87 292 l 87 329 q 163 336 190 366 q 218 396 218 477 l 218 571 q 218 669 260 705 q 301 740 416 740 z"},"9":{"x_min":0,"x_max":667,"ha":667,"o":"m 57 43 l 108 187 l 120 187 q 142 98 182 56 q 223 14 286 14 q 370 14 413 84 q 455 153 455 291 l 455 301 q 430 253 386 229 q 342 205 278 205 q 174 205 106 263 q 38 321 38 409 q 38 506 115 568 q 192 630 314 630 q 457 630 540 546 q 623 462 623 319 q 623 167 532 75 q 441 -16 288 -16 q 226 -16 167 -1 q 109 14 57 43 z m 445 422 q 445 503 412 552 q 378 601 324 601 q 268 601 236 555 q 205 509 205 425 q 205 337 236 291 q 266 245 324 245 q 379 245 412 293 q 445 340 445 422 z"}," ":{"x_min":0,"x_max":333,"ha":333,"o":""},"I":{"x_min":0,"x_max":352,"ha":352,"o":"m 261 226 q 261 96 277 58 q 292 20 336 10 l 336 -3 q 303 -1 267 -1 q 230 0 171 0 q 114 0 81 -1 q 47 -1 16 -3 l 16 10 q 59 19 74 56 q 90 92 90 226 l 90 560 q 90 594 76 612 q 62 630 29 638 l 29 652 q 63 650 98 649 q 134 648 171 648 q 210 648 248 649 q 285 650 323 652 l 323 638 q 290 631 276 613 q 261 595 261 560 z"},"H":{"x_min":0,"x_max":787,"ha":787,"o":"m 250 363 q 263 362 283 361 q 302 361 353 361 l 434 361 q 458 361 483 361 q 509 362 537 363 l 537 560 q 537 594 523 613 q 509 631 478 638 l 478 652 q 513 650 548 649 q 583 648 620 648 q 657 648 692 649 q 728 650 764 652 l 764 638 q 733 633 719 614 q 704 596 704 560 l 704 226 q 704 98 719 58 q 734 19 776 10 l 776 -3 q 744 -1 710 -1 q 676 0 620 0 q 564 0 531 -1 q 498 -1 466 -3 l 466 10 q 507 18 522 55 q 537 92 537 226 l 537 324 q 521 325 500 326 q 480 326 434 326 l 353 326 q 307 326 287 326 q 266 325 250 324 l 250 226 q 250 95 265 57 q 280 20 322 10 l 322 -3 q 290 -1 255 -1 q 220 0 162 0 q 107 0 74 -1 q 42 -1 12 -3 l 12 10 q 53 19 68 55 q 83 92 83 226 l 83 560 q 83 594 70 612 q 56 630 24 638 l 24 652 q 58 650 92 649 q 126 648 162 648 q 201 648 237 649 q 274 650 310 652 l 310 638 q 278 632 264 614 q 250 595 250 560 z"},"4":{"x_min":0,"x_max":667,"ha":667,"o":"m 217 -3 l 217 9 q 268 19 287 47 q 306 74 306 140 l 306 162 l 13 162 l 31 211 l 437 651 l 448 648 q 447 631 447 603 q 447 574 447 493 l 448 226 l 458 226 q 519 226 559 246 q 600 266 630 311 l 640 308 l 589 155 q 565 159 537 160 q 509 162 477 162 l 453 162 q 453 156 452 150 q 452 144 452 131 q 452 70 471 43 q 490 16 537 9 l 537 -3 q 507 -1 473 -1 q 440 0 381 0 q 323 0 287 -1 q 251 -1 217 -3 z m 309 226 l 312 463 l 95 226 z"},"~":{"x_min":0,"x_max":833,"ha":833,"o":"m 747 392 l 747 284 q 696 250 651 233 q 606 217 562 217 q 540 217 517 221 q 495 225 472 232 q 460 236 438 244 q 331 281 275 281 q 233 281 188 262 q 143 244 87 204 l 87 312 q 139 347 187 365 q 234 382 276 382 q 333 382 418 354 l 420 353 q 429 350 447 344 q 522 317 564 317 q 605 317 649 335 q 693 353 747 392 z"},"D":{"x_min":0,"x_max":792,"ha":792,"o":"m 250 611 l 250 229 q 250 165 252 128 q 254 91 258 74 q 264 49 284 40 q 303 30 353 30 q 453 30 507 108 q 562 186 562 328 q 562 477 508 547 q 453 616 336 616 q 317 616 296 615 q 275 614 250 611 z m 13 0 l 13 8 q 53 17 68 52 q 83 87 83 226 l 83 556 q 83 596 70 615 q 56 633 25 638 l 25 649 q 49 648 75 648 q 101 648 147 648 q 188 648 246 649 q 304 650 321 650 q 431 650 500 634 q 569 619 622 584 q 687 541 720 479 q 753 417 753 339 q 753 273 731 214 q 709 154 670 112 q 613 51 539 26 q 465 0 337 0 l 152 0 z"},"^":{"x_min":0,"x_max":1000,"ha":1000,"o":"m 442 714 l 557 714 l 797 438 l 742 438 l 499 620 l 256 438 l 201 438 z"},"0":{"x_min":0,"x_max":667,"ha":667,"o":"m 333 14 q 400 14 432 82 q 465 150 465 291 q 465 455 434 528 q 403 600 333 600 q 264 600 233 531 q 202 461 202 307 q 202 153 233 84 q 265 14 333 14 z m 30 307 q 30 379 53 440 q 77 500 124 547 q 165 588 217 608 q 270 629 333 629 q 396 629 448 608 q 500 587 542 545 q 589 498 613 438 q 637 378 637 308 q 637 238 613 179 q 589 120 541 70 q 501 28 447 6 q 394 -16 333 -16 q 272 -16 218 6 q 163 29 122 71 q 77 116 53 177 q 30 238 30 307 z"},"F":{"x_min":0,"x_max":649,"ha":649,"o":"m 256 226 q 256 96 271 58 q 286 20 328 10 l 328 -3 q 296 -1 261 -1 q 227 0 168 0 q 112 0 79 -1 q 46 -1 16 -3 l 16 10 q 58 19 73 56 q 88 94 88 226 l 88 558 q 88 592 74 610 q 61 628 29 636 l 29 650 l 35 650 q 139 648 190 648 l 603 648 l 659 481 l 645 477 q 582 548 502 581 q 423 614 314 614 q 292 614 279 614 q 267 613 256 612 l 256 362 q 275 361 292 360 q 308 360 324 360 q 411 360 469 388 q 526 417 542 468 l 556 468 l 556 216 l 542 216 q 525 272 469 300 q 412 328 316 328 q 301 328 265 326 q 259 326 256 326 z"},"`":{"x_min":0,"x_max":500,"ha":500,"o":"m 345 589 l 301 589 l 148 669 q 121 684 111 695 q 102 706 102 722 q 102 742 114 754 q 126 766 146 766 q 161 766 177 757 q 192 748 212 727 z"},"k":{"x_min":0,"x_max":602,"ha":602,"o":"m 72 580 q 72 644 60 662 q 49 679 16 682 l 16 693 q 75 700 126 709 q 176 718 219 729 q 217 689 216 644 q 215 599 215 546 l 215 318 l 318 412 q 338 430 349 447 q 360 463 360 476 q 360 488 347 498 q 334 508 312 513 l 312 525 q 349 523 384 523 q 418 522 451 522 q 484 522 515 523 q 546 523 576 525 l 576 513 q 503 487 434 441 q 366 394 297 323 q 367 313 406 291 q 444 268 481 201 l 528 112 q 530 108 534 101 q 574 24 617 9 l 617 -3 q 599 -1 577 -1 q 555 0 512 0 q 471 0 450 -1 q 429 -1 412 -3 q 391 27 365 76 q 339 125 306 197 q 301 208 293 226 q 269 283 245 283 q 229 283 222 272 q 215 261 215 233 l 215 210 q 215 88 229 54 q 243 20 280 9 l 280 -3 q 255 -1 227 -1 q 198 0 142 0 q 91 0 62 -1 q 33 -1 7 -3 l 7 9 q 44 21 58 55 q 72 89 72 201 l 72 233 z"},"u":{"x_min":0,"x_max":657,"ha":657,"o":"m 61 372 q 61 436 50 453 q 38 470 5 473 l 5 485 q 70 493 120 502 q 170 511 204 521 l 204 241 q 204 138 229 91 q 254 44 309 44 q 366 44 400 97 q 434 151 434 241 l 434 372 q 434 436 423 453 q 411 470 378 473 l 378 485 q 436 493 486 502 q 537 511 581 521 q 580 486 580 455 q 579 423 579 397 l 579 238 q 579 109 593 66 q 607 23 645 15 l 645 -2 q 598 -1 568 0 q 539 0 513 0 l 461 0 q 452 30 447 51 q 442 72 439 91 q 414 39 370 12 q 325 -14 261 -14 q 161 -14 111 47 q 61 108 61 231 z"},"]":{"x_min":0,"x_max":361,"ha":361,"o":"m 54 -174 l 54 -153 q 107 -148 126 -125 q 144 -103 144 -23 l 144 516 q 144 595 126 618 q 107 641 54 646 l 54 667 q 172 667 220 634 q 269 601 269 521 l 269 -28 q 269 -108 220 -141 q 172 -174 54 -174 z"},"U":{"x_min":0,"x_max":751,"ha":751,"o":"m 247 343 q 247 256 252 202 q 256 148 266 125 q 286 75 327 50 q 369 25 432 25 q 532 25 585 84 q 637 144 637 257 l 637 353 q 637 515 614 566 q 590 617 528 638 l 528 651 q 567 649 596 649 q 626 648 648 648 q 676 648 711 649 q 745 649 784 651 l 784 639 q 721 618 698 567 q 674 516 674 353 l 674 262 q 674 118 602 50 q 530 -19 380 -19 q 297 -19 239 -2 q 180 15 141 50 q 106 82 91 129 q 76 176 76 265 q 76 301 78 350 q 79 399 79 413 l 79 560 q 79 594 65 612 q 51 630 19 638 l 19 652 q 52 650 86 649 q 121 648 158 648 q 197 648 234 649 q 271 650 307 652 l 307 638 q 275 632 261 614 q 247 595 247 560 z"},"o":{"x_min":0,"x_max":664,"ha":664,"o":"m 331 18 q 399 18 434 80 q 469 142 469 262 q 469 381 434 443 q 399 504 331 504 q 265 504 230 442 q 195 380 195 263 q 195 143 229 80 q 264 18 331 18 z m 32 260 q 32 383 115 458 q 198 534 333 534 q 466 534 549 458 q 631 383 631 261 q 631 139 548 63 q 465 -12 329 -12 q 198 -12 115 64 q 32 141 32 260 z"},"N":{"x_min":0,"x_max":757,"ha":757,"o":"m 125 295 q 125 150 148 91 q 172 31 231 10 l 231 -3 q 194 -1 165 -1 q 136 0 113 0 q 85 0 54 -1 q 23 -1 -11 -3 l -11 9 q 42 32 65 96 q 88 160 88 295 l 88 492 q 88 571 73 598 q 59 625 20 637 l 20 650 q 70 649 99 648 q 128 648 153 648 q 169 648 201 648 q 233 649 249 649 q 322 568 412 475 q 501 383 637 250 l 637 353 q 637 512 615 564 q 592 617 532 638 l 532 651 q 567 649 597 649 q 626 648 649 648 q 677 648 709 649 q 740 649 775 651 l 775 639 q 718 613 696 563 q 674 513 674 353 l 674 -12 l 652 -19 q 517 126 385 265 q 254 403 125 536 z"},"+":{"x_min":0,"x_max":833,"ha":833,"o":"m 367 596 l 466 596 l 466 347 l 709 347 l 709 250 l 466 250 l 466 0 l 367 0 l 367 250 l 124 250 l 124 347 l 367 347 z"},"G":{"x_min":0,"x_max":789,"ha":789,"o":"m 784 333 l 784 320 q 745 310 731 294 q 718 279 718 244 l 718 134 q 718 119 719 103 q 720 87 721 71 q 665 25 593 3 q 521 -20 431 -20 q 252 -20 145 75 q 37 169 37 326 q 37 479 147 573 q 257 667 438 667 q 517 667 591 647 q 666 626 729 588 l 670 426 l 656 429 q 640 533 589 583 q 538 634 451 634 q 338 634 283 557 q 227 479 227 324 q 227 165 275 88 q 323 12 423 12 q 495 12 523 48 q 552 83 552 181 q 552 266 529 290 q 505 314 435 320 l 435 333 q 477 331 520 330 q 563 329 608 329 q 647 329 691 330 q 735 331 784 333 z"},"q":{"x_min":0,"x_max":667,"ha":667,"o":"m 386 -198 l 386 -187 q 431 -178 447 -144 q 463 -111 463 13 l 463 33 l 463 67 q 430 27 388 8 q 346 -12 294 -12 q 184 -12 110 68 q 36 147 36 265 q 36 386 109 460 q 183 535 300 535 q 357 535 400 513 q 442 490 472 444 q 478 462 486 481 q 494 500 506 520 l 542 520 q 570 520 601 521 q 632 521 667 523 l 667 512 q 631 504 618 460 q 604 416 604 288 l 604 21 q 604 -108 618 -143 q 632 -177 669 -187 l 669 -198 q 632 -196 598 -196 q 564 -195 533 -195 q 502 -195 466 -196 q 430 -196 386 -198 z m 197 262 q 197 150 232 89 q 267 29 331 29 q 395 29 429 89 q 463 148 463 262 q 463 376 430 437 q 396 497 333 497 q 267 497 232 437 q 197 376 197 262 z"},"d":{"x_min":0,"x_max":667,"ha":667,"o":"m 322 492 q 258 492 223 432 q 188 371 188 259 q 188 145 223 84 q 258 24 324 24 q 387 24 421 84 q 454 145 454 259 q 454 373 420 432 q 386 492 322 492 z m 463 77 q 433 30 391 8 q 349 -14 291 -14 q 174 -14 100 61 q 27 135 27 256 q 27 374 101 454 q 175 533 285 533 q 337 533 379 513 q 421 494 454 454 l 454 579 q 454 646 443 662 q 432 679 402 681 l 402 692 q 458 700 507 709 q 556 718 599 729 q 597 680 596 634 q 595 588 595 546 l 595 233 q 595 105 609 61 q 623 17 658 9 l 658 -2 q 642 -1 624 0 q 606 0 571 0 q 539 0 523 0 q 508 -1 496 -2 q 486 16 478 36 q 469 56 463 77 z"},"1":{"x_min":0,"x_max":667,"ha":667,"o":"m 260 476 q 260 547 245 564 q 230 581 187 583 l 187 595 q 242 600 300 609 q 357 618 417 630 q 415 604 414 554 q 413 505 413 423 l 413 214 q 413 83 431 50 q 449 17 500 9 l 500 -3 q 467 -1 431 -1 q 396 0 333 0 q 277 0 243 -1 q 209 -1 177 -3 l 177 9 q 225 20 242 50 q 260 81 260 184 l 260 233 z"},"5":{"x_min":0,"x_max":667,"ha":667,"o":"m 22 45 l 82 219 l 94 219 q 103 123 154 69 q 205 14 284 14 q 353 14 395 56 q 436 99 436 169 q 436 244 391 286 q 345 327 263 327 q 227 327 184 318 q 142 308 89 289 l 80 293 l 106 613 l 472 613 q 514 613 536 619 q 559 625 571 638 l 582 637 l 531 495 l 209 495 q 132 495 121 362 q 120 343 119 333 q 169 347 215 353 q 261 360 304 360 q 446 360 528 312 q 610 264 610 181 q 610 90 529 37 q 448 -16 308 -16 q 226 -16 154 -1 q 82 15 22 45 z"}}}
